<?xml version="1.0" encoding="UTF-8" standalone="no"?>
<svg
   xmlns:dc="http://purl.org/dc/elements/1.1/"
   xmlns:cc="http://creativecommons.org/ns#"
   xmlns:rdf="http://www.w3.org/1999/02/22-rdf-syntax-ns#"
   xmlns:svg="http://www.w3.org/2000/svg"
   xmlns="http://www.w3.org/2000/svg"
   xmlns:sodipodi="http://sodipodi.sourceforge.net/DTD/sodipodi-0.dtd"
   xmlns:inkscape="http://www.inkscape.org/namespaces/inkscape"
   sodipodi:docname="chochin.svg"
   inkscape:version="1.0 (4035a4fb49, 2020-05-01)"
   id="svg8"
   version="1.1"
   viewBox="0 0 59.376413 85.063545"
   height="321.5"
   width="224.41479">
  <defs
     id="defs2" />
  <sodipodi:namedview
     inkscape:window-maximized="0"
     inkscape:window-y="58"
     inkscape:window-x="24"
     inkscape:window-height="998"
     inkscape:window-width="1872"
     fit-margin-bottom="0"
     fit-margin-right="0"
     fit-margin-left="0"
     fit-margin-top="0"
     inkscape:snap-global="true"
     units="px"
     showgrid="true"
     inkscape:document-rotation="0"
     inkscape:current-layer="layer1"
     inkscape:document-units="px"
     inkscape:cy="60.673051"
     inkscape:cx="184.89071"
     inkscape:zoom="1.979899"
     inkscape:pageshadow="2"
     inkscape:pageopacity="0.0"
     borderopacity="1.0"
     bordercolor="#666666"
     pagecolor="#ffffff"
     id="base">
    <inkscape:grid
       originy="18.520834"
       originx="-1.98567"
       id="grid1009"
       type="xygrid" />
  </sodipodi:namedview>
  <metadata
     id="metadata5">
    <rdf:RDF>
      <cc:Work
         rdf:about="">
        <dc:format>image/svg+xml</dc:format>
        <dc:type
           rdf:resource="http://purl.org/dc/dcmitype/StillImage" />
        <dc:title></dc:title>
      </cc:Work>
    </rdf:RDF>
  </metadata>
  <g
     transform="translate(-1.9856703,18.520834)"
     id="layer1"
     inkscape:groupmode="layer"
     inkscape:label="レイヤー 1">
    <g
       id="g1073">
      <g
         id="g1032">
        <path
           sodipodi:nodetypes="sccsccs"
           d="m 60.965209,31.75 c 0,14.433681 -5.240148,23.83715 -17.308959,27.78125 H 19.84375 C 7.7438581,55.608183 2.3825453,46.207775 2.3825453,31.75 2.3825454,17.41755 7.9054659,7.9998281 19.84375,3.96875 h 23.8125 C 55.64108,7.9690569 60.965209,17.381442 60.965209,31.75 Z"
           style="fill:#111111;fill-opacity:1;stroke:#ffffff;stroke-width:0.79375;stroke-linecap:round;stroke-linejoin:round;stroke-miterlimit:4;stroke-dasharray:none;stroke-opacity:1"
           id="path1006" />
        <rect
           y="-2.6458333"
           x="19.84375"
           height="5.2916665"
           width="23.8125"
           id="rect1011"
           style="fill:#111111;fill-opacity:1;stroke:#ffffff;stroke-width:0.79375;stroke-linecap:round;stroke-linejoin:round;stroke-miterlimit:4;stroke-dasharray:none;stroke-opacity:1" />
        <rect
           style="fill:#111111;fill-opacity:1;stroke:#ffffff;stroke-width:0.79375;stroke-linecap:round;stroke-linejoin:round;stroke-miterlimit:4;stroke-dasharray:none;stroke-opacity:1"
           id="rect1011-5"
           width="23.8125"
           height="5.2916689"
           x="19.84375"
           y="60.854168" />
        <path
           d="M 31.650162,11.904968 A 19.832893,19.844025 0 0 0 11.831815,31.749082 19.832893,19.844025 0 0 0 31.664753,51.593041 19.832893,19.844025 0 0 0 51.497541,31.749082 19.832893,19.844025 0 0 0 31.664753,11.904968 a 19.832893,19.844025 0 0 0 -0.01459,0 z m 4.808372,3.835769 a 16.675358,16.728795 0 0 1 8.843906,6.386015 8.7419278,8.7419278 0 0 0 -5.352411,-1.795883 8.7419278,8.7419278 0 0 0 -3.491495,-4.590132 z m -9.708631,0.04222 a 8.7419278,8.7419278 0 0 0 -3.42801,4.547603 8.7419278,8.7419278 0 0 0 -5.292344,1.817924 16.675358,16.728795 0 0 1 8.720354,-6.365527 z m 4.885357,1.655099 h 1.59e-4 a 7.1641589,7.1456003 0 0 1 0.01553,0 7.1641589,7.1456003 0 0 1 5.984153,3.217067 8.7419278,8.7419278 0 0 0 -0.3421,0.103376 8.7419278,8.7419278 0 0 0 -5.510273,5.316247 l -0.10229,-0.10229 -0.102133,0.102135 a 8.7419278,8.7419278 0 0 0 -5.510581,-5.316402 8.7419278,8.7419278 0 0 0 -0.391771,-0.11719 7.1641589,7.1456003 0 0 1 5.959318,-3.202943 z m -6.770025,4.937202 a 7.1456003,7.1641589 18 0 1 2.19526,0.348934 7.1456003,7.1641589 18 0 1 4.208141,3.66006 l -0.780287,0.780285 0.556304,0.556305 v 2.061773 l -0.397359,-0.68824 0.142647,-0.531936 -1.139928,-0.305471 -0.305472,1.139928 0.531936,0.142491 0.397359,0.68824 -1.785482,-1.030809 -0.203647,-0.759952 -1.628402,0.436321 0.295848,1.104383 a 7.1641589,7.1456003 0 0 1 -2.465341,-5.394013 7.1641589,7.1456003 0 0 1 0.350639,-2.208143 7.1456003,7.1641589 18 0 1 0.02778,-1.58e-4 z m 13.608196,0.02887 a 7.1641589,7.1456003 0 0 1 0.341635,2.179428 7.1641589,7.1456003 0 0 1 -2.388041,5.325871 l 0.277687,-1.036242 -1.628403,-0.43632 -0.203646,0.759952 -1.785483,1.030809 0.397359,-0.68824 0.531938,-0.142492 -0.305474,-1.139927 -1.139925,0.305471 0.142643,0.531935 -0.397514,0.688551 v -2.062083 l 0.556304,-0.556305 -0.764918,-0.764919 a 7.1641589,7.1456003 72 0 1 4.201929,-3.646868 7.1641589,7.1456003 72 0 1 2.163909,-0.348621 z m -15.57094,0.244314 a 8.7419278,8.7419278 0 0 0 -0.0086,0.383546 8.7419278,8.7419278 0 0 0 3.603561,7.072239 8.7419278,8.7419278 0 0 0 -7.028001,3.603406 8.7419278,8.7419278 0 0 0 -0.210942,0.303919 7.1456003,7.1641589 18 0 1 -1.212571,-6.667273 7.1456003,7.1641589 18 0 1 0.0048,-0.01475 7.1456003,7.1641589 18 0 1 4.851677,-4.681091 z m 17.466937,0.0012 a 7.1641589,7.1456003 72 0 1 4.944964,4.693664 7.1641589,7.1456003 72 0 1 0.0048,0.0149 7.1641589,7.1456003 72 0 1 -1.202636,6.675499 8.7419278,8.7419278 0 0 0 -0.22569,-0.325804 8.7419278,8.7419278 0 0 0 -7.116941,-3.603406 8.7419278,8.7419278 0 0 0 3.603874,-7.07255 8.7419278,8.7419278 0 0 0 -0.0084,-0.382304 z M 27.532981,30.43092 a 7.1641589,7.1456003 36 0 1 0.611252,0.03539 l 1.494137,0.862551 h -0.351726 a 7.1641589,7.1456003 0 0 1 -0.756691,-0.313386 l -0.07606,-0.07606 -0.02577,0.02577 A 7.1641589,7.1456003 0 0 1 27.532977,30.43094 Z m -0.533953,0.0118 a 8.7419278,8.7419278 0 0 0 0.09328,0.05758 l 3.3e-4,0.0012 0.0012,-3.31e-4 a 8.7419278,8.7419278 0 0 0 1.192702,0.605509 l -0.667131,0.667131 0.834457,0.834456 0.389444,-0.389443 h 0.794876 l -1.785638,1.030963 -0.759952,-0.203647 -0.43632,1.628401 1.628402,0.436321 0.203647,-0.759952 1.365928,-0.788512 a 8.7419278,8.7419278 0 0 0 -0.38898,0.556149 l -0.120761,0.03228 0.02996,0.111913 a 8.7419278,8.7419278 0 0 0 -0.652386,1.28692 7.1456003,7.1641589 18 0 1 -6.089391,0.801396 7.1456003,7.1641589 18 0 1 -1.991615,-1.016064 7.1641589,7.1456003 36 0 1 1.004733,-1.963984 7.1641589,7.1456003 36 0 1 5.353188,-2.928361 z m 8.742395,0.0071 a 7.1641589,7.1456003 0 0 1 -0.828402,0.495459 l -0.0059,-0.0059 -0.01799,0.01801 a 7.1641589,7.1456003 0 0 1 -0.874194,0.371439 h -0.292122 l 1.462009,-0.84408 a 7.1456003,7.1641589 54 0 1 0.556613,-0.03492 z m 0.538919,0.0073 a 7.1456003,7.1641589 54 0 1 5.410001,2.931619 7.1456003,7.1641589 54 0 1 1.014198,1.992544 7.1641589,7.1456003 72 0 1 -1.967398,0.998368 7.1641589,7.1456003 72 0 1 -6.086289,-0.799376 8.7419278,8.7419278 0 0 0 -0.664492,-1.316878 l 0.03011,-0.112534 -0.121385,-0.03244 a 8.7419278,8.7419278 0 0 0 -0.38913,-0.556616 l 1.366702,0.789134 0.203646,0.759952 1.628403,-0.436321 -0.436322,-1.628401 -0.759953,0.203647 -1.785636,-1.030965 h 0.794877 l 0.389443,0.389445 0.834455,-0.834457 -0.693361,-0.693362 a 8.7419278,8.7419278 0 0 0 1.156845,-0.595886 l 0.06333,0.01692 z m -1.695145,0.804189 -0.06751,0.06752 h -0.128369 a 8.7419278,8.7419278 0 0 0 0.195888,-0.06752 z m -5.761571,0.0478 a 8.7419278,8.7419278 0 0 0 0.05883,0.01971 h -0.03912 z m -13.82457,0.29476 a 8.7419278,8.7419278 0 0 0 3.228864,4.540619 8.7419278,8.7419278 0 0 0 0.07078,5.612094 16.675358,16.728795 0 0 1 -3.300574,-9.990819 16.675358,16.728795 0 0 1 9.19e-4,-0.161894 z m 33.349395,0.04361 a 16.675358,16.728795 0 0 1 6.01e-4,0.118277 16.675358,16.728795 0 0 1 -3.275268,9.956827 8.7419278,8.7419278 0 0 0 0.05898,-5.577636 8.7419278,8.7419278 0 0 0 3.215819,-4.497468 z m -18.074615,1.672639 -0.397359,0.68824 -0.192783,0.05169 a 7.1456003,7.1641589 54 0 1 0.409934,-0.635931 z m 2.813344,0 0.15972,0.0922 a 7.1641589,7.1456003 36 0 1 0.413347,0.643072 l -0.175708,-0.04703 z m -0.770973,0.444702 0.397514,0.68855 -0.142643,0.531936 1.139925,0.305471 0.0295,-0.110206 a 8.7419278,8.7419278 0 0 0 0.61684,0.573535 7.1641589,7.1456003 36 0 1 -1.119594,6.03879 7.1641589,7.1456003 36 0 1 -1.581681,1.580283 7.1456003,7.1641589 54 0 1 -1.557465,-1.562588 7.1456003,7.1641589 54 0 1 -1.120526,-6.035531 8.7419278,8.7419278 0 0 0 0.642296,-0.594799 l 0.02964,0.110516 1.139929,-0.305471 -0.142646,-0.531936 0.397358,-0.68824 v 2.061772 l -0.556304,0.556305 1.192081,1.192081 1.192081,-1.192081 -0.556304,-0.556305 z m -2.873256,0.753122 0.108342,0.404345 a 7.1456003,7.1641589 18 0 1 -0.4149,0.337601 7.1456003,7.1641589 54 0 1 0.306558,-0.741946 z m 4.469216,0.02188 a 7.1641589,7.1456003 36 0 1 0.2974,0.730461 7.1641589,7.1456003 72 0 1 -0.404345,-0.331238 z m -5.407671,1.604808 a 8.7419278,8.7419278 0 0 0 1.241751,7.839952 8.7419278,8.7419278 0 0 0 0.223671,0.29445 7.1641589,7.1456003 36 0 1 -6.715545,-0.9071 7.1641589,7.1456003 36 0 1 -0.01257,-0.0092 7.1641589,7.1456003 36 0 1 -2.950867,-6.107552 8.7419278,8.7419278 0 0 0 0.374078,0.131004 8.7419278,8.7419278 0 0 0 7.839485,-1.241595 z m 6.351404,1.59e-4 a 8.7419278,8.7419278 0 0 0 7.839951,1.241752 8.7419278,8.7419278 0 0 0 0.349242,-0.121692 7.1456003,7.1641589 54 0 1 -2.937984,6.106467 7.1456003,7.1641589 54 0 1 -0.01258,0.0092 7.1456003,7.1641589 54 0 1 -6.720511,0.91905 8.7419278,8.7419278 0 0 0 0.240278,-0.315249 8.7419278,8.7419278 0 0 0 1.241597,-7.839486 z m -3.17578,9.773668 a 8.7419278,8.7419278 0 0 0 5.421485,1.665034 16.675358,16.728795 0 0 1 -5.428005,0.911134 16.675358,16.728795 0 0 1 -5.430177,-0.911755 8.7419278,8.7419278 0 0 0 5.436697,-1.664413 z"
           style="fill:#ffffff;fill-opacity:1;stroke-width:1.47866;stroke-linecap:round;stroke-linejoin:round"
           id="path2623" />
      </g>
      <rect
         style="fill:#ffffff;fill-opacity:1;stroke:none;stroke-width:1.32292;stroke-linecap:round;stroke-linejoin:round;stroke-miterlimit:4;stroke-dasharray:none;stroke-opacity:1;paint-order:markers stroke fill"
         id="rect1065"
         width="2.6458335"
         height="15.875"
         x="30.427084"
         y="-18.520834" />
    </g>
  </g>
</svg>
