<?xml version="1.0" encoding="UTF-8" standalone="no"?>
<svg
   xmlns:dc="http://purl.org/dc/elements/1.1/"
   xmlns:cc="http://creativecommons.org/ns#"
   xmlns:rdf="http://www.w3.org/1999/02/22-rdf-syntax-ns#"
   xmlns:svg="http://www.w3.org/2000/svg"
   xmlns="http://www.w3.org/2000/svg"
   xmlns:sodipodi="http://sodipodi.sourceforge.net/DTD/sodipodi-0.dtd"
   xmlns:inkscape="http://www.inkscape.org/namespaces/inkscape"
   sodipodi:docname="logo_black.svg"
   inkscape:version="1.0 (4035a4fb49, 2020-05-01)"
   id="svg8"
   version="1.1"
   viewBox="0 0 552.58008 132.13199"
   height="132.13199mm"
   width="552.58008mm">
  <defs
     id="defs2">
    <rect
       id="rect109"
       height="64.762245"
       width="152.30521"
       y="188.20833"
       x="-0.23946489" />
  </defs>
  <sodipodi:namedview
     inkscape:window-maximized="0"
     inkscape:window-y="58"
     inkscape:window-x="584"
     inkscape:window-height="998"
     inkscape:window-width="1312"
     fit-margin-bottom="0"
     fit-margin-right="0"
     fit-margin-left="0"
     fit-margin-top="0"
     showgrid="false"
     inkscape:document-rotation="0"
     inkscape:current-layer="layer1"
     inkscape:document-units="mm"
     inkscape:cy="267.19611"
     inkscape:cx="1584.2586"
     inkscape:zoom="0.175"
     inkscape:pageshadow="2"
     inkscape:pageopacity="0.0"
     borderopacity="1.0"
     bordercolor="#666666"
     pagecolor="#ffffff"
     id="base" />
  <metadata
     id="metadata5">
    <rdf:RDF>
      <cc:Work
         rdf:about="">
        <dc:format>image/svg+xml</dc:format>
        <dc:type
           rdf:resource="http://purl.org/dc/dcmitype/StillImage" />
        <dc:title></dc:title>
      </cc:Work>
    </rdf:RDF>
  </metadata>
  <g
     transform="translate(0.90189868,-0.28425723)"
     id="layer1"
     inkscape:groupmode="layer"
     inkscape:label="レイヤー 1">
    <g
       transform="translate(-0.96649422,0.28736229)"
       id="layer1-3"
       inkscape:label="レイヤー 1">
      <path
         transform="scale(0.26458333)"
         d="M 249.61914,-0.01171875 A 249.55802,249.6981 0 0 0 0.24414062,249.6875 249.55802,249.6981 0 0 0 249.80273,499.38477 249.55802,249.6981 0 0 0 499.35938,249.6875 249.55802,249.6981 0 0 0 249.80273,-0.01171875 a 249.55802,249.6981 0 0 0 -0.18359,0 z m 0.29492,39.41210975 a 209.82663,210.49904 0 0 1 209.82617,210.498049 209.82663,210.49904 0 0 1 -209.82617,210.5 209.82663,210.49904 0 0 1 -209.828122,-210.5 A 209.82663,210.49904 0 0 1 249.91406,39.400391 Z"
         style="fill:#000000;stroke-width:18.606;stroke-linecap:round;stroke-linejoin:round"
         id="path2623" />
      <path
         transform="scale(0.26458333)"
         d="m 249.43945,30 a 110,110 0 0 0 -110,110 110,110 0 0 0 110,110 110,110 0 0 0 110,-110 110,110 0 0 0 -110,-110 z m -0.008,39.611328 a 90.146874,89.913352 0 0 1 0.19531,0 90.146874,89.913352 0 0 1 90.14649,89.912112 90.146874,89.913352 0 0 1 -90.14649,89.91406 90.146874,89.913352 0 0 1 -90.14648,-89.91406 90.146874,89.913352 0 0 1 89.95117,-89.912112 z"
         style="fill:#000000;fill-opacity:1;stroke-width:25.451;stroke-linecap:round;stroke-linejoin:round;stroke-miterlimit:4;stroke-dasharray:none"
         id="path2630" />
      <path
         inkscape:transform-center-y="-8.9931175"
         inkscape:transform-center-x="-27.679665"
         id="path2630-6"
         style="fill:#000000;fill-opacity:1;stroke-width:6.73391;stroke-linecap:round;stroke-linejoin:round;stroke-miterlimit:4;stroke-dasharray:none"
         d="M 121.50468,48.158822 A 29.104166,29.104166 0 0 0 84.831289,29.472794 29.104166,29.104166 0 0 0 66.145264,66.146186 29.104166,29.104166 0 0 0 102.81865,84.832205 29.104166,29.104166 0 0 0 121.50468,48.158822 Z m -9.96816,3.236749 a 23.85136,23.789574 72 0 1 0.016,0.04917 A 23.85136,23.789574 72 0 1 96.297972,81.479776 23.85136,23.789574 72 0 1 66.302124,66.147329 23.85136,23.789574 72 0 1 81.557086,36.111993 23.85136,23.789574 72 0 1 111.53648,51.395457 Z" />
      <path
         d="m 100.35875,113.23728 a 29.104166,29.104166 0 0 0 6.43877,-40.652764 29.104166,29.104166 0 0 0 -40.652768,-6.438764 29.104166,29.104166 0 0 0 -6.438761,40.652758 29.104166,29.104166 0 0 0 40.652759,6.43877 z m -6.15866,-8.48007 a 23.789574,23.85136 54 0 1 -0.04182,0.0304 23.789574,23.85136 54 0 1 -33.27893,-5.226599 23.789574,23.85136 54 0 1 5.312797,-33.265733 23.789574,23.85136 54 0 1 33.279344,5.226902 23.789574,23.85136 54 0 1 -5.271295,33.23495 z"
         style="fill:#000000;fill-opacity:1;stroke-width:6.73391;stroke-linecap:round;stroke-linejoin:round;stroke-miterlimit:4;stroke-dasharray:none"
         id="path2671"
         inkscape:transform-center-x="-17.10645"
         inkscape:transform-center-y="23.545897" />
      <path
         inkscape:transform-center-y="23.545284"
         inkscape:transform-center-x="17.107295"
         id="path2673"
         style="fill:#000000;fill-opacity:1;stroke-width:6.73391;stroke-linecap:round;stroke-linejoin:round;stroke-miterlimit:4;stroke-dasharray:none"
         d="m 31.931008,113.23666 a 29.104166,29.104166 0 0 0 40.652766,-6.43876 29.104166,29.104166 0 0 0 -6.438768,-40.652768 29.104166,29.104166 0 0 0 -40.652757,6.438767 29.104166,29.104166 0 0 0 6.438759,40.652761 z m 6.161896,-8.47772 a 23.85136,23.789574 36 0 1 -0.04184,-0.0304 23.85136,23.789574 36 0 1 -5.312963,-33.26525 23.85136,23.789574 36 0 1 33.279336,-5.226906 23.85136,23.789574 36 0 1 5.312804,33.265738 23.85136,23.789574 36 0 1 -33.237236,5.256868 z" />
      <path
         d="M 10.786262,48.157818 A 29.104166,29.104166 0 0 0 29.472283,84.83121 29.104166,29.104166 0 0 0 66.145674,66.145181 29.104166,29.104166 0 0 0 47.45965,29.4718 29.104166,29.104166 0 0 0 10.786262,48.157818 Z m 9.966922,3.240552 A 23.789574,23.85136 18 0 1 20.769164,51.34918 23.789574,23.85136 18 0 1 50.764504,36.016728 23.789574,23.85136 18 0 1 66.019467,66.052054 23.789574,23.85136 18 0 1 36.023617,81.38451 23.789574,23.85136 18 0 1 20.753168,51.398481 Z"
         style="fill:#000000;fill-opacity:1;stroke-width:6.73391;stroke-linecap:round;stroke-linejoin:round;stroke-miterlimit:4;stroke-dasharray:none"
         id="path2675"
         inkscape:transform-center-x="27.679341"
         inkscape:transform-center-y="-8.9941117" />
      <path
         transform="scale(0.26458333)"
         d="m 250,177 -15,15 7,7 v 102 l -7,7 15,15 15,-15 -7,-7 V 199 l 7,-7 z"
         style="fill:#000000;fill-opacity:1;stroke:none;stroke-width:1.06904px;stroke-linecap:butt;stroke-linejoin:miter;stroke-opacity:1"
         id="path2708" />
      <path
         id="path2730"
         style="fill:#000000;fill-opacity:1;stroke:none;stroke-width:0.28285px;stroke-linecap:butt;stroke-linejoin:miter;stroke-opacity:1"
         d="m 82.872752,56.488541 -5.421413,-1.452663 -0.67791,2.529993 -23.37186,13.493749 -2.529993,-0.677909 -1.452663,5.421413 5.421413,1.452663 0.67791,-2.529993 23.37186,-13.493749 2.529993,0.677909 z" />
      <path
         d="m 82.872752,75.803124 -1.452663,-5.421413 -2.529994,0.677909 -23.371859,-13.49375 -0.67791,-2.529992 -5.421413,1.452663 1.452663,5.421413 2.529994,-0.677909 23.371859,13.49375 0.67791,2.529992 z"
         style="fill:#000000;fill-opacity:1;stroke:none;stroke-width:0.28285px;stroke-linecap:butt;stroke-linejoin:miter;stroke-opacity:1"
         id="path2732" />
      <path
         id="path2734"
         style="fill:#000000;fill-opacity:1;stroke:none;stroke-width:0.197995px;stroke-linecap:butt;stroke-linejoin:miter;stroke-opacity:1"
         d="m 72.905936,77.854676 1.016865,-3.794989 -1.770996,-0.474537 -9.445624,-16.360302 0.474537,-1.770995 -3.794989,-1.016864 -1.016865,3.794989 1.770996,0.474537 9.445624,16.360302 -0.474537,1.770995 z" />
      <path
         d="m 59.385728,77.854675 3.79499,-1.016863 -0.474537,-1.770995 9.445625,-16.360302 1.770996,-0.474537 -1.016865,-3.794988 -3.79499,1.016863 0.474537,1.770995 -9.445625,16.360302 -1.770996,0.474537 z"
         style="fill:#000000;fill-opacity:1;stroke:none;stroke-width:0.197995px;stroke-linecap:butt;stroke-linejoin:miter;stroke-opacity:1"
         id="path2736" />
      <path
         id="path2738"
         style="fill:#000000;fill-opacity:1;stroke:none;stroke-width:0.197995px;stroke-linecap:butt;stroke-linejoin:miter;stroke-opacity:1"
         d="m 52.625625,66.145831 2.778124,2.778127 1.296459,-1.296459 h 18.891249 l 1.296459,1.296459 2.778124,-2.778124 -2.778124,-2.778127 -1.296459,1.296459 H 56.700208 l -1.296459,-1.296459 z" />
    </g>
    <path
       style="fill:#000000;stroke:none"
       id="パス"
       fill="none"
       stroke="#000000"
       stroke-width="0.239236"
       d="m 197.68391,106.50531 c 0,0 0,-0.68474 0,-0.68474 -0.91313,-1.37185 -1.36973,-2.87301 -1.36973,-4.50343 0,-1.632846 0,-3.299176 0,-4.99667 0,-1.699851 0,-3.397331 0,-5.09719 0,-1.697479 0,-3.394924 0,-5.094809 0,0 0.68368,-3.818702 0.68368,-3.818702 0,0 -1.4654,-21.74869 -1.4654,-21.74869 0,0 -2.05347,0 -2.05347,0 0,0 -1.46783,1.958426 -1.46783,1.958426 0,0 -3.61932,1.865079 -3.61932,1.865079 0,0 0,1.27131 0,1.27131 0,0 -10.07374,7.055616 -10.07374,7.055616 0,0 -1.46788,0 -1.46788,0 0,0 -5.67515,6.464273 -5.67515,6.464273 -0.97773,0.390259 -1.94114,1.012739 -2.88779,1.862679 -0.94186,0.847537 -1.90288,1.48438 -2.88303,1.908149 -0.97769,0.423768 -1.94111,0.735023 -2.88776,0.931351 -0.94425,0.196246 -1.8718,0.521922 -2.78502,0.9792 0,0 -3.7173,-1.960828 -3.7173,-1.960828 0,0 -0.68369,-2.547396 -0.68369,-2.547396 1.49886,-0.390258 2.96665,-0.684742 4.40099,-0.87867 1.43435,-0.196248 2.73719,-0.636843 3.91095,-1.323959 1.17377,-0.684745 2.36428,-1.551428 3.56909,-2.595297 1.20966,-1.046247 2.52927,-1.568196 3.96356,-1.568196 0,0 1.3722,-1.960829 1.3722,-1.960829 0,0 12.22531,-10.773792 12.22531,-10.773792 0,0 1.36978,0 1.36978,0 0,0 0,-1.276083 0,-1.276083 0,0 6.55248,-7.05084 6.55248,-7.05084 0,0 -7.2386,-0.58659 -7.2386,-0.58659 -1.43433,0.847537 -2.98338,1.484405 -4.64722,1.910551 -1.66144,0.426171 -3.21053,0.945719 -4.64725,1.568193 -1.43434,0.617698 -2.86869,1.56579 -4.30299,2.839502 -1.43433,1.27131 -3.09579,1.711816 -4.98668,1.319184 0,0 0,-7.05084 0,-7.05084 0,0 2.1515,-2.645571 2.1515,-2.645571 0,0 1.36737,0 1.36737,0 0,0 0,-1.273713 0,-1.273713 1.95788,-0.392635 3.88227,-0.684714 5.7708,-0.881046 1.89333,-0.196248 3.66954,-0.620101 5.33095,-1.273714 1.66384,-0.653606 3.47349,-1.192298 5.43133,-1.616066 1.9555,-0.42377 3.65276,-1.060609 5.08711,-1.912927 0,0 0.68368,-2.542614 0.68368,-2.542614 0,0 -1.36738,-3.823509 -1.36738,-3.823509 0.45658,-0.847538 0.6837,-1.793227 0.6837,-2.8395 0,-1.046248 0,-2.106857 0,-3.184237 0,-1.077378 0.35857,-1.927321 1.07576,-2.547422 0.71714,-0.62007 1.30286,-1.355093 1.75945,-2.202631 0,0 4.98907,-0.689524 4.98907,-0.689524 0,0 5.08711,17.829437 5.08711,17.829437 2.80411,0 5.41465,0.114795 7.82669,0.344761 2.41205,0.229901 4.93889,0.344762 7.57806,0.344762 2.64157,0 5.15166,0.42377 7.53024,1.27368 2.38101,0.849945 4.77874,1.470045 7.19079,1.860276 0,0 0,1.271306 0,1.271306 0,0 -1.46538,0 -1.46538,0 0,0 -2.83764,2.645576 -2.83764,2.645576 0,0 -6.45449,1.862676 -6.45449,1.862676 0,0 -19.36827,-1.862676 -19.36827,-1.862676 0,0 0,3.823506 0,3.823506 0,0 2.83521,4.405264 2.83521,4.405264 0,0 1.37214,0 1.37214,0 0.51879,2.154759 1.61127,3.871385 3.2751,5.145094 1.66383,1.271309 3.34199,2.545018 5.0345,3.818701 1.69732,1.276114 3.50697,2.336725 5.43136,3.186665 1.92441,0.849914 3.83206,1.893784 5.723,3.131585 0,0 17.21679,3.136358 17.21679,3.136358 0,0 7.2386,-1.273709 7.2386,-1.273709 0,0 1.4678,1.273709 1.4678,1.273709 -0.52357,0.979226 -0.78412,1.879418 -0.78412,2.695853 0,0.816405 -0.35859,1.551424 -1.07576,2.202632 -0.71715,0.651207 -1.3052,1.288076 -1.76422,1.908151 -0.45658,0.622504 -0.94425,1.357493 -1.46304,2.205029 -1.50125,0.84994 -2.96903,1.6017 -4.40579,2.255317 -1.43431,0.653608 -2.9834,0.979226 -4.64485,0.979226 -1.66141,0 -3.32527,0 -4.98669,0 -1.66381,0 -3.44003,0 -5.33094,0 0,0 -1.46778,-0.687124 -1.46778,-0.687124 0,0 0,-1.273701 0,-1.273701 0,0 -3.61933,-1.273718 -3.61933,-1.273718 0,0 -10.76226,-9.60063 -10.76226,-9.60063 0,0 0,-1.271311 0,-1.271311 0,0 -3.61932,-1.862677 -3.61932,-1.862677 0,0 -0.6837,-1.960829 -0.6837,-1.960829 0,0 -2.15149,-0.586563 -2.15149,-0.586563 0,0 -5.77083,-4.503444 -5.77083,-4.503444 0,0 -0.68365,23.60896 -0.68365,23.60896 0,0 1.46538,9.59825 1.46538,9.59825 0,0 -0.78173,0 -0.78173,0 0,0 -0.68365,3.62477 -0.68365,3.62477 0,0 -1.46784,0 -1.46784,0 0,0 0,2.74135 0,2.74135 0,0 -2.15153,0 -2.15153,0 z m 141.34644,-0.69191 c 0,0 -10.56628,-6.564826 -10.56628,-6.564826 0,0 -4.69501,-7.934316 -4.69501,-7.934316 0,0 -1.27182,0 -1.27182,0 0,0 -4.10696,-9.059546 -4.10696,-9.059546 0,0 -1.07574,0 -1.07574,0 -0.78409,-3.275232 -2.05351,-6.234433 -3.81532,-8.882409 -1.76183,-2.645547 -3.52128,-5.389272 -5.28076,-8.228772 -1.76183,-2.841877 -3.61927,-5.549689 -5.57715,-8.130621 -1.95787,-2.58093 -3.1316,-5.535326 -3.52131,-8.865641 0,0 2.34756,-1.173129 2.34756,-1.173129 0,0 1.75942,1.173129 1.75942,1.173129 0,0 8.80446,15.772829 8.80446,15.772829 0,0 2.24949,2.449239 2.24949,2.449239 0,0 5.38116,9.10985 5.38116,9.10985 0,0 1.17375,0 1.17375,0 0,0 2.34514,2.449241 2.34514,2.449241 0,0 0,1.175531 0,1.175531 0,0 1.17613,0 1.17613,0 0,0 0,1.182743 0,1.182743 1.95547,0.787671 3.91095,1.510704 5.86642,2.164316 1.9555,0.658415 3.91334,1.29766 5.87122,1.920138 1.9555,0.624883 3.91095,1.328764 5.86644,2.116441 1.95786,0.790089 4.11177,0.952902 6.45927,0.495598 0,0 5.28073,-2.365434 5.28073,-2.365434 0,0 0,1.182715 0,1.182715 -0.78172,0.45968 -1.17137,1.000771 -1.17137,1.62326 0,0.624878 0,1.230605 0,1.821949 0,0.59137 0,1.182738 0,1.774082 0,0.588973 0,1.110913 0,1.570598 0,0 0.5857,4.211339 0.5857,4.211339 0,0 -2.93565,5.291136 -2.93565,5.291136 0,0 -11.14952,3.72056 -11.14952,3.72056 z m -82.65827,-3.12681 c 0,0 0,-0.58657 0,-0.58657 0,0 2.84001,-1.66633 2.84001,-1.66633 0,0 2.34513,-4.211364 2.34513,-4.211364 0,0 8.80444,-9.210401 8.80444,-9.210401 0.78168,-1.89379 1.5467,-3.86658 2.29729,-5.925588 0.75065,-2.056578 1.43675,-4.098819 2.05349,-6.124293 0.62156,-2.023069 1.22399,-4.031801 1.81205,-6.02136 0.58808,-1.991937 0.88211,-4.264017 0.88211,-6.813816 -0.78408,-0.782895 -1.37217,-1.565789 -1.76421,-2.348685 -0.38968,-0.782895 -0.87971,-1.48438 -1.46781,-2.106884 -0.5857,-0.620073 -0.97533,-1.321584 -1.17139,-2.104479 -0.19593,-0.782895 -0.29168,-1.795632 -0.29168,-3.038211 0,0 3.51891,-5.973459 3.51891,-5.973459 0,0 5.28074,-0.785297 5.28074,-0.785297 0,0 4.10936,3.133984 4.10936,3.133984 0,0 1.17613,9.011668 1.17613,9.011668 -0.39442,0.84994 -0.59044,1.766901 -0.59044,2.746128 0,0.976825 -0.19594,1.989563 -0.58569,3.033432 -0.39207,1.046243 -0.88212,1.960829 -1.46781,2.746098 -0.58565,0.782895 -0.87971,1.795633 -0.87971,3.033431 0,0 -1.17136,0 -1.17136,0 0,0 0,1.276087 0,1.276087 0,0 -1.17618,0 -1.17618,0 -0.78407,2.41573 -1.48453,4.735689 -2.10367,6.957493 -0.61915,2.221776 -1.30287,4.4388 -2.0535,6.658205 -0.75061,2.221776 -1.32199,4.556093 -1.71162,7.002961 -0.39209,2.449239 -1.36979,4.687785 -2.93562,6.713254 0,0 -2.34515,0.48842 -2.34515,0.48842 0,0 0,1.17552 0,1.17552 0,0 -8.8044,2.353486 -8.8044,2.353486 0,0 -1.75944,-0.4908 -1.75944,-0.4908 0,0 -2.83999,1.07737 -2.83999,1.07737 z m 29.83416,-9.598248 c 0,0 0,-0.490795 0,-0.490795 0,0 -3.51887,-1.276115 -3.51887,-1.276115 0,0 -1.17616,-9.794556 -1.17616,-9.794556 0,0 0.59046,-1.177938 0.59046,-1.177938 0,0 4.10457,-1.173155 4.10457,-1.173155 0,0 0,-2.940027 0,-2.940027 0,0 1.76184,0 1.76184,0 0,0 1.75943,-21.844467 1.75943,-21.844467 0,0 -0.58569,-1.86268 -0.58569,-1.86268 0,0 -1.17374,0 -1.17374,0 0,0 0,-2.449241 0,-2.449241 0,0 1.75943,-4.309515 1.75943,-4.309515 0,0 3.52368,0 3.52368,0 0,0 1.17139,0.785297 1.17139,0.785297 0,0 0,1.173154 0,1.173154 0,0 1.17376,0 1.17376,0 0,0 0,9.600638 0,9.600638 -0.39206,1.240173 -0.68606,2.468385 -0.88211,3.677452 -0.19368,1.206666 -0.29168,2.528251 -0.29168,3.964757 0,1.436504 0,2.856241 0,4.261639 0,1.402969 0,2.69345 0,3.866576 0,0 1.17375,0 1.17375,0 0,0 2.93561,-0.586562 2.93561,-0.586562 0,0 0,-3.722953 0,-3.722953 0,0 2.24953,0 2.24953,0 0,0 5.96921,6.761161 5.96921,6.761161 0,0 0.58567,6.758757 0.58567,6.758757 -1.95784,0 -3.71967,0.08145 -5.28554,0.246587 -1.56341,0.162878 -3.1292,0.749385 -4.69502,1.762126 -1.5634,1.012729 -3.0312,1.944054 -4.40102,2.794001 -1.36977,0.849905 -2.83518,1.470022 -4.39861,1.860277 0,0 -1.27419,4.11559 -1.27419,4.11559 0,0 -1.07573,0 -1.07573,0 z M 277.4066,39.121236 c 0,0 -0.59046,-0.58419 -0.59046,-0.58419 0,0 8.21636,-8.472977 8.21636,-8.472977 0,0 0,-2.434877 0,-2.434877 0,0 1.17374,0 1.17374,0 0,0 1.07575,-2.348685 1.07575,-2.348685 0,0 5.38353,-3.13636 5.38353,-3.13636 0,0 7.6259,4.309515 7.6259,4.309515 0,0 1.17614,3.610407 1.17614,3.610407 0,0 -0.6861,1.848311 -0.6861,1.848311 0,0 -4.00898,2.434879 -4.00898,2.434879 0,0 -0.58569,1.170751 -0.58569,1.170751 -1.17612,0.454872 -2.26863,1.170752 -3.27984,2.145171 -1.0112,0.972045 -2.2017,1.458055 -3.57148,1.458055 -1.36979,0 -2.72282,0 -4.05911,0 -1.33636,0 -2.59143,0 -3.76515,0 0,0 -3.61934,-0.58419 -3.61934,-0.58419 0,0 -0.48527,0.58419 -0.48527,0.58419 z m 157.09301,70.149324 c -3.52131,-1.04625 -6.94697,-2.5809 -10.27225,-4.604 -3.32765,-2.02785 -6.65531,-4.06768 -9.98055,-6.124276 -3.32526,-2.058992 -6.76287,-3.727732 -10.31761,-4.999045 -3.55239,-1.273707 -6.89441,-3.445203 -10.02365,-6.516948 0,0 -0.58808,-10.19201 -0.58808,-10.19201 0,0 5.28317,-23.029559 5.28317,-23.029559 0,0 -6.55731,0 -6.55731,0 -0.71717,0.459685 -1.56342,1.063014 -2.54352,1.814778 -0.97539,0.749385 -1.77384,1.778861 -2.39299,3.086085 -0.62154,1.307217 -1.20962,2.466008 -1.76422,3.478743 -0.55224,1.012736 -1.02556,2.073346 -1.4152,3.18186 0,0 0,3.042986 0,3.042986 0.38964,1.046276 0.78171,2.090116 1.17376,3.133986 0.38966,1.046249 0.97533,2.058982 1.75947,3.038209 0.78407,0.979228 1.17615,2.123624 1.17615,3.430846 0,1.307219 0,2.743725 0,4.309515 0,0 -2.34993,4.704561 -2.34993,4.704561 0,0 -4.20499,1.470039 -4.20499,1.470039 0,0 -5.86881,-2.940062 -5.86881,-2.940062 0,0 -8.80442,10.680415 -8.80442,10.680415 0,0 -4.69505,1.666351 -4.69505,1.666351 0,0 -5.28075,-6.270349 -5.28075,-6.270349 0,0 0,-3.921658 0,-3.921658 0,0 4.1094,-6.957462 4.1094,-6.957462 0,0 1.17135,0 1.17135,0 0,0 1.75944,0.883449 1.75944,0.883449 0,0 5.87117,-6.272748 5.87117,-6.272748 0,0 0,-4.704555 0,-4.704555 0,0 -0.59045,-3.720548 -0.59045,-3.720548 0,0 1.76424,-5.487453 1.76424,-5.487453 0,0 -1.17379,0 -1.17379,0 -0.71952,0.521921 -1.3889,1.027103 -2.00806,1.517919 -0.61913,0.48841 -1.31956,1.012736 -2.10365,1.568165 -0.78171,0.553056 -1.66146,0.828394 -2.64157,0.828394 -0.97537,0 -1.85507,0 -2.63678,0 0,0 -1.17617,-4.70215 -1.17617,-4.70215 0,0 1.76427,-4.70218 1.76427,-4.70218 0,0 7.04013,-7.742765 7.04013,-7.742765 1.56587,0 3.05039,0 4.45122,0 1.40328,0 2.78741,-0.359126 4.15723,-1.077379 1.36974,-0.718254 2.83755,-1.077379 4.40098,-1.077379 1.56583,0 2.93561,-0.555432 4.10937,-1.668719 0.38966,-1.043874 0.863,-2.219402 1.41523,-3.524246 0.55459,-1.304818 1.04465,-2.578527 1.46778,-3.818701 0.42552,-1.242578 0.6383,-2.645576 0.6383,-4.211366 0,-1.570567 0,-3.138763 0,-4.706931 0,0 4.695,-2.446865 4.695,-2.446865 0,0 4.00895,3.232138 4.00895,3.232138 0,0 0.68613,4.017435 0.68613,4.017435 -0.4566,0.457278 -0.96582,1.06061 -1.52039,1.809998 -0.55221,0.751759 -0.92755,1.632835 -1.12356,2.645571 -0.1937,1.012739 -0.38966,1.929696 -0.58571,2.746103 -0.19593,0.816432 -0.29168,1.711843 -0.29168,2.688666 0,0 2.8352,0.787676 2.8352,0.787676 0,0 8.31436,-1.472418 8.31436,-1.472418 0,0 4.10937,2.25294 4.10937,2.25294 0,0.459679 0.29168,0.967236 0.87971,1.522692 0.58809,0.553056 0.88211,1.206666 0.88211,1.960832 0,0.749357 0,1.517887 0,2.303186 0,0.785299 0,1.436505 0,1.960831 0,0 -6.45684,4.603999 -6.45684,4.603999 -0.39209,1.637615 -0.97778,3.208186 -1.7595,4.711738 -0.78409,1.501147 -1.27178,3.150726 -1.46775,4.948761 -0.19848,1.798036 -0.29645,3.61281 -0.29645,5.441952 0,1.829169 0,3.75646 0,5.779558 0,0 0.59048,2.353467 0.59048,2.353467 2.34514,1.113292 4.59461,2.322359 6.74613,3.62958 2.15389,1.307216 4.42015,2.319955 6.79873,3.040587 2.37861,0.718244 4.72855,1.47004 7.04501,2.255307 2.31402,0.785295 4.67826,1.470047 7.09274,2.059011 0,0 5.28073,-1.766899 5.28073,-1.766899 0,0 0.58569,2.45161 0.58569,2.45161 0,0 1.85747,0 1.85747,0 0,0 1.66622,-3.138761 1.66622,-3.138761 0,0 2.34511,-2.252911 2.34511,-2.252911 0,0 -1.75943,-0.687115 -1.75943,-0.687115 0,0 -1.66143,0.687115 -1.66143,0.687115 0,0 0,-0.687115 0,-0.687115 0,0 2.24712,-0.782897 2.24712,-0.782897 0,0 1.17374,-4.022214 1.17374,-4.022214 0.84868,0 1.64952,0 2.39773,0 0.75067,0 1.43197,-0.244328 2.05115,-0.732616 0.61911,-0.490818 1.22394,-1.144426 1.81201,-1.960831 0.58806,-0.816434 1.2407,-1.225837 1.95787,-1.225837 0,0 0,-1.470017 0,-1.470017 0,0 1.1714,0 1.1714,0 0,0 1.85979,3.133987 1.85979,3.133987 0,0 0,2.255314 0,2.255314 0,0 0.58808,0 0.58808,0 0,0 0,2.353465 0,2.353465 0,0 1.75949,0 1.75949,0 0,0 0,1.668749 0,1.668749 0,0 -3.6193,8.427477 -3.6193,8.427477 0,0 -6.45453,2.257722 -6.45453,2.257722 -0.39206,0.521923 -0.76734,1.063005 -1.12596,1.618461 -0.35855,0.55306 -0.84624,0.83078 -1.4678,0.83078 -0.6191,0 -1.12594,0.11479 -1.51557,0.34476 -0.39208,0.22989 -0.97776,0.34235 -1.75947,0.34235 0,0 -1.07575,3.722956 -1.07575,3.722956 0,0 0.49007,1.66874 0.49007,1.66874 0,0 3.6145,0 3.6145,0 0,0 7.04498,-5.391696 7.04498,-5.391696 0,0 0,0.78771 0,0.78771 0,0 -5.37877,3.720536 -5.37877,3.720536 0,0 0,1.66635 0,1.66635 0,0 1.75947,0.7781 1.75947,0.7781 0,0 0,0.68473 0,0.68473 -0.78171,0.97443 -1.54909,1.58975 -2.30211,1.85069 -0.74824,0.25845 -1.63035,0.51713 -2.63918,0.77811 -1.00878,0.26101 -2.00331,0.39264 -2.981,0.39264 -0.98013,0 -2.0559,0 -3.22725,0 z m 3.6193,-1.50115 c 0,0 0.49006,-0.68711 0.49006,-0.68711 0,0 -2.93802,-0.7829 -2.93802,-0.7829 0,0 0,2.25291 0,2.25291 0,0 1.85751,0 1.85751,0 0,0 0.59045,-0.7829 0.59045,-0.7829 z m 6.35648,-23.010401 c 0,0 0,-1.663941 0,-1.663941 0,0 -1.07576,0 -1.07576,0 0,0 0,1.663941 0,1.663941 0,0 0.49007,0.782898 0.49007,0.782898 0,0 0.58569,-0.782898 0.58569,-0.782898 z M 379.23231,60.553895 c 0,0 0.58572,-3.236915 0.58572,-3.236915 0,0 -3.03128,0 -3.03128,0 0,0 -2.24946,1.766899 -2.24946,1.766899 0,0 0,2.250509 0,2.250509 0,0 4.10935,0 4.10935,0 0,0 0.58567,-0.780493 0.58567,-0.780493 z M 488.5883,106.06479 c 0,0 -2.15145,-1.66397 -2.15145,-1.66397 0,0 -1.6615,-6.567216 -1.6615,-6.567216 0,0 1.07577,-2.837088 1.07577,-2.837088 1.82403,-0.328024 3.56913,-0.588964 5.23296,-0.782897 1.6638,-0.196244 3.30849,-0.574607 4.93886,-1.130063 1.6304,-0.555456 3.27746,-1.110878 4.94127,-1.663946 1.66383,-0.555456 3.24399,-0.998361 4.74289,-1.32398 0,0 1.66384,-7.146617 1.66384,-7.146617 0,0 -1.1738,0 -1.1738,0 0,0 -3.32526,1.074974 -3.32526,1.074974 0,0 -1.56342,-1.074974 -1.56342,-1.074974 0,0 0,-0.586563 0,-0.586563 0,0 -1.66382,-0.586593 -1.66382,-0.586593 0,0 0.48526,0 0.48526,0 0,0 1.66626,-3.224954 1.66626,-3.224954 0.392,-0.39023 0.76735,-0.763723 1.12592,-1.122849 0.3586,-0.359126 0.81282,-0.538687 1.36739,-0.538687 0.55463,0 1.10924,0 1.66148,0 0.55458,0 1.0279,-0.19399 1.41999,-0.58419 0,0 0.48768,-2.149979 0.48768,-2.149979 0,0 -0.48768,-3.909671 -0.48768,-3.909671 0,0 -2.24952,0 -2.24952,0 0,0 -6.65294,2.741322 -6.65294,2.741322 -0.32751,-0.325617 -0.66697,-0.766129 -1.02554,-1.319181 -0.35859,-0.555457 -0.63828,-1.108511 -0.83431,-1.656787 -0.19367,-0.553058 -0.29167,-1.101302 -0.29167,-1.647175 0,-0.54587 0,-1.173154 0,-1.881822 0,0 4.99147,-7.043683 4.99147,-7.043683 0,0 1.07576,0 1.07576,0 0,0 0,-1.642395 0,-1.642395 0,0 -1.66386,0 -1.66386,0 0,0 -6.06481,2.154759 -6.06481,2.154759 0,0 -1.07572,-3.23932 -1.07572,-3.23932 0.32508,-0.787674 0.76494,-1.36228 1.31715,-1.723809 0.55461,-0.361529 1.11162,-0.641648 1.66384,-0.837951 0.55463,-0.196249 1.10923,-0.378297 1.66141,-0.543497 0.55462,-0.165135 1.1905,-0.246587 1.90767,-0.246587 0,0 0,-1.084562 0,-1.084562 1.50369,-0.787673 3.08384,-1.182711 4.74527,-1.182711 1.66384,0 3.22726,-0.2777 4.69506,-0.830771 1.4678,-0.555458 3.01687,-0.636868 4.64723,-0.246585 1.63037,0.392632 3.19379,0.196247 4.69503,-0.586594 0,0 0,-1.077378 0,-1.077378 0,0 -2.24946,-0.490787 -2.24946,-0.490787 0,0 0,-1.175561 0,-1.175561 0,0 -9.88019,0 -9.88019,0 0,0 -11.54162,3.33032 -11.54162,3.33032 0,0 -4.98671,6.6582 -4.98671,6.6582 0,0 -4.98905,13.225409 -4.98905,13.225409 0,0 -1.07578,0 -1.07578,0 0,0 -1.07575,3.232135 -1.07575,3.232135 0,0 -2.24949,0 -2.24949,0 0,0 0,1.663973 0,1.663973 0,0 1.17377,0 1.17377,0 0,0 -0.5881,2.633583 -0.5881,2.633583 0,0 -1.07573,0 -1.07573,0 0,0 -0.58809,2.30081 -0.58809,2.30081 0,0 -1.07576,0 -1.07576,0 0,0 -1.07573,3.90249 -1.07573,3.90249 0,0 -1.17376,0 -1.17376,0 0,0 0,1.697483 0,1.697483 0,0 0.58566,0 0.58566,0 0,0 0,0.478825 0,0.478825 0,0 -0.58566,0 -0.58566,0 0,0 -2.15149,3.835459 -2.15149,3.835459 0,0 -0.58571,0 -0.58571,0 0,0 -1.07577,3.335099 -1.07577,3.335099 0,0 -2.73958,-0.586558 -2.73958,-0.586558 0,0 -2.74194,0.586558 -2.74194,0.586558 0,0 -5.47437,-1.077379 -5.47437,-1.077379 0,0 0,-0.586567 0,-0.586567 0,0 -0.58565,0 -0.58565,0 0,0 0,-0.586584 0,-0.586584 0,0 -0.5881,0 -0.5881,0 0,0 -1.66626,-4.412445 -1.66626,-4.412445 0,0 -2.15146,-0.488413 -2.15146,-0.488413 0,0 0,-0.588966 0,-0.588966 1.43429,-0.32562 2.80409,-0.684745 4.10935,-1.077384 1.30522,-0.390258 2.59138,-0.861901 3.86313,-1.41736 1.27179,-0.555457 2.46228,-1.192297 3.56911,-1.910551 1.11162,-0.720656 2.22083,-1.635212 3.33003,-2.746131 0,0 3.32292,-4.996631 3.32292,-4.996631 0,0 1.07572,0 1.07572,0 1.43434,-2.547396 2.88537,-5.111558 4.35319,-7.692487 1.4678,-2.580933 2.85433,-5.243246 4.15715,-7.986972 1.30292,-2.743724 2.68937,-5.403663 4.15723,-7.98219 1.46778,-2.580903 2.20407,-5.537727 2.20407,-8.870421 0,0 2.1515,0 2.1515,0 0,0 2.24711,1.177933 2.24711,1.177933 0,0 0.49008,1.666346 0.49008,1.666346 0,0 1.17134,0 1.17134,0 0,0 0,2.74135 0,2.74135 0,0 2.15153,0 2.15153,0 1.10922,-0.782894 2.39531,-1.254565 3.86314,-1.41736 1.47021,-0.165135 2.83999,-0.428546 4.10938,-0.787672 1.27176,-0.359127 2.64155,-0.634467 4.10933,-0.828396 1.46782,-0.196248 2.95233,-0.490818 4.45122,-0.883451 0,0 0.59048,-2.159535 0.59048,-2.159535 0,0 -2.2519,-5.482671 -2.2519,-5.482671 0,0 -3.32525,-0.588969 -3.32525,-0.588969 0,0 -8.21635,1.666345 -8.21635,1.666345 0,0 -0.58808,1.663945 -0.58808,1.663945 0,0 -1.66624,0.490813 -1.66624,0.490813 0,0 -6.06004,-0.490813 -6.06004,-0.490813 -0.3275,0.328021 -0.66934,0.588967 -1.02794,0.785297 -0.35859,0.19399 -0.81757,0.29208 -1.3722,0.29208 -0.5522,0 -1.10681,0 -1.6614,0 -0.5546,0 -1.02796,0 -1.42001,0 0,0 -1.07572,-5.020585 -1.07572,-5.020585 0,0 1.07572,-2.166719 1.07572,-2.166719 1.82879,-1.113292 4.03049,-1.671125 6.60511,-1.671125 2.57462,0 4.96997,-0.179562 7.18603,-0.538692 2.21842,-0.359126 4.42011,-0.636867 6.60511,-0.830798 2.18496,-0.196246 4.5827,-0.294483 7.19316,-0.294483 1.04227,0.390261 2.118,0.586594 3.22724,0.586594 1.10683,0 2.31407,0 3.61691,0 1.30289,0 2.41211,0.277671 3.3229,0.833173 0.91316,0.55543 1.92677,0.995966 3.03599,1.321582 0,0 1.07574,3.337474 1.07574,3.337474 0,0 -1.6638,2.154757 -1.6638,2.154757 0,0 -2.24953,1.177936 -2.24953,1.177936 0,0 -3.81295,10.982082 -3.81295,10.982082 0,0 -2.73957,0 -2.73957,0 0,0 0,1.077381 0,1.077381 0,0 8.21395,1.668747 8.21395,1.668747 0,0 2.2519,2.746101 2.2519,2.746101 0,0 0,2.255314 0,2.255314 0,0 -3.91333,0 -3.91333,0 0,0 -12.61735,-1.668723 -12.61735,-1.668723 0,0 -5.47915,1.668723 -5.47915,1.668723 0,0 0,1.668751 0,1.668751 0,0 0.48767,2.746127 0.48767,2.746127 0,0 -3.22724,2.255313 -3.22724,2.255313 0,0 0,1.568169 0,1.568169 0,0 1.66384,0 1.66384,0 0,0 9.87773,-2.746103 9.87773,-2.746103 0,0 0,-1.663971 0,-1.663971 0,0 -0.58564,-2.154758 -0.58564,-2.154758 0,0 1.07575,0 1.07575,0 0,0 7.72863,3.818729 7.72863,3.818729 0,0 1.66146,1.663944 1.66146,1.663944 0,0 0,1.666347 0,1.666347 0,0 1.07573,0 1.07573,0 0,0 0,4.970307 0,4.970307 0,0 -3.81292,0.486009 -3.81292,0.486009 0,0 -6.6529,-2.726959 -6.6529,-2.726959 0,0 -5.47438,1.070199 -5.47438,1.070199 0,0 0,1.170751 0,1.170751 0,0 1.07573,3.217771 1.07573,3.217771 0,0 -0.49005,2.240948 -0.49005,2.240948 0,0 1.07574,0 1.07574,0 0,0 6.65293,-0.586562 6.65293,-0.586562 0,0 1.56344,2.240948 1.56344,2.240948 0,0 1.17372,0 1.17372,0 0,0 0,2.722176 0,2.722176 0,0 -8.8044,0.584162 -8.8044,0.584162 0,0 -1.17138,4.376561 -1.17138,4.376561 0,0 -1.07573,0 -1.07573,0 0,0 0,2.741321 0,2.741321 0,0 0.58568,0.49082 0.58568,0.49082 0,0 -1.07574,0 -1.07574,0 0,0 0,2.25291 0,2.25291 3.2583,-0.392633 6.27519,-0.409404 9.04583,-0.05033 2.77306,0.359127 5.62501,0.735024 8.55822,1.127667 2.93559,0.390254 5.77319,0.94809 8.51278,1.66874 2.73956,0.718252 5.7708,0.914591 9.09364,0.586558 0,0 1.56582,-0.591335 1.56582,-0.591335 0.78409,0.395039 1.17617,1.048647 1.17617,1.963196 0,0.914591 0.35855,1.549058 1.07573,1.908184 0.71718,0.359126 0.99449,0.998376 0.82952,1.912926 -0.16263,0.91218 -0.2414,1.726206 -0.2414,2.444456 -0.39207,0.78767 -1.0447,1.35991 -1.95786,1.71904 -0.9132,0.35912 -1.82876,0.61769 -2.74201,0.78048 -0.91079,0.16513 -1.82397,0.24659 -2.73714,0.24659 -0.91321,0 -1.92202,0 -3.02886,0 0,0 -4.99148,-1.56579 -4.99148,-1.56579 0,0 0,-1.18033 0,-1.18033 -1.82637,-0.32558 -3.47345,-1.04385 -4.94126,-2.154756 -1.46777,-1.10849 -3.11249,-1.75972 -4.93888,-1.95602 -1.82403,-0.196258 -3.74844,-0.375902 -5.77082,-0.538698 -2.02243,-0.165134 -3.94681,-0.246592 -5.77081,-0.246592 0,0 -10.46586,1.07738 -10.46586,1.07738 0,0 0,0.58656 0,0.58656 0,0 -1.17376,0 -1.17376,0 0,0 -2.74198,-0.58656 -2.74198,-0.58656 0,0 -5.47435,2.74133 -5.47435,2.74133 0,0 0,0.588956 0,0.588956 0,0 -3.32527,1.66875 -3.32527,1.66875 0,0 -2.74198,3.8187 -2.74198,3.8187 z m 25.9232,-10.333284 c 0,0 0,-0.586559 0,-0.586559 0,0 -1.17139,0 -1.17139,0 0,0 -1.07572,0.586559 -1.07572,0.586559 0,0 0,1.077378 0,1.077378 0,0 2.24711,0 2.24711,0 0,0 0,-1.077378 0,-1.077378 z m 2.15154,0 c 0,0 -0.4901,-0.586559 -0.4901,-0.586559 0,0 -0.5857,0.586559 -0.5857,0.586559 0,0 0.5857,0.588964 0.5857,0.588964 0,0 0.4901,-0.588964 0.4901,-0.588964 z m -44.01493,-3.823481 c 0,0 -0.5881,-0.586593 -0.5881,-0.586593 0,0 -0.48769,0.586593 -0.48769,0.586593 0,0 0.48769,0.490786 0.48769,0.490786 0,0 0.5881,-0.490786 0.5881,-0.490786 z m -9.39015,-6.112324 c 0,0 3.90859,-2.255316 3.90859,-2.255316 0,0 0.49005,-1.663972 0.49005,-1.663972 0,0 -1.07574,0 -1.07574,0 0,0 -4.39861,2.841904 -4.39861,2.841904 0,0 -0.49008,1.568173 -0.49008,1.568173 0,0 1.07574,0 1.07574,0 0,0 0.49005,-0.490789 0.49005,-0.490789 z m 57.80845,-6.619918 c 0,0 -0.48765,-0.490788 -0.48765,-0.490788 0,0 -0.5881,0.490788 -0.5881,0.490788 0,0 0.5881,0.586593 0.5881,0.586593 0,0 0.48765,-0.586593 0.48765,-0.586593 z m -42.35589,-1.666345 c 0,0 -0.58804,-0.488413 -0.58804,-0.488413 0,0 -0.4877,0.488413 -0.4877,0.488413 0,0 0.4877,0.588966 0.4877,0.588966 0,0 0.58804,-0.588966 0.58804,-0.588966 z m 4.40342,-4.898483 c 0,0 -0.5881,-0.588968 -0.5881,-0.588968 0,0 -0.48764,0.588968 -0.48764,0.588968 0,0 0.48764,0.488411 0.48764,0.488411 0,0 0.5881,-0.488411 0.5881,-0.488411 z" />
  </g>
</svg>
