<?xml version="1.0" encoding="UTF-8" standalone="no"?>
<svg
   xmlns:dc="http://purl.org/dc/elements/1.1/"
   xmlns:cc="http://creativecommons.org/ns#"
   xmlns:rdf="http://www.w3.org/1999/02/22-rdf-syntax-ns#"
   xmlns:svg="http://www.w3.org/2000/svg"
   xmlns="http://www.w3.org/2000/svg"
   xmlns:sodipodi="http://sodipodi.sourceforge.net/DTD/sodipodi-0.dtd"
   xmlns:inkscape="http://www.inkscape.org/namespaces/inkscape"
   sodipodi:docname="noren.svg"
   inkscape:version="1.0 (4035a4fb49, 2020-05-01)"
   id="svg8"
   version="1.1"
   viewBox="0 0 198.4375 51.507736"
   height="51.507736mm"
   width="198.4375mm">
  <defs
     id="defs2" />
  <sodipodi:namedview
     inkscape:window-maximized="0"
     inkscape:window-y="58"
     inkscape:window-x="24"
     inkscape:window-height="998"
     inkscape:window-width="1872"
     fit-margin-bottom="0"
     fit-margin-right="0"
     fit-margin-left="0"
     fit-margin-top="0"
     inkscape:guide-bbox="true"
     showguides="true"
     showgrid="true"
     inkscape:document-rotation="0"
     inkscape:current-layer="layer1"
     inkscape:document-units="px"
     inkscape:cy="-33.670175"
     inkscape:cx="-65.406048"
     inkscape:zoom="0.98994949"
     inkscape:pageshadow="2"
     inkscape:pageopacity="0.0"
     borderopacity="1.0"
     bordercolor="#666666"
     pagecolor="#ffffff"
     id="base">
    <inkscape:grid
       originy="0"
       originx="0"
       id="grid12"
       type="xygrid" />
    <sodipodi:guide
       id="guide37"
       orientation="1,0"
       position="66.145831,51.507745" />
    <sodipodi:guide
       id="guide39"
       orientation="1,0"
       position="0,51.507745" />
    <sodipodi:guide
       id="guide41"
       orientation="1,0"
       position="132.29166,51.507745" />
    <sodipodi:guide
       id="guide43"
       orientation="1,0"
       position="33.072916,51.507745" />
    <sodipodi:guide
       id="guide45"
       orientation="1,0"
       position="99.218747,51.507745" />
    <sodipodi:guide
       id="guide77"
       orientation="1,0"
       position="165.36458,51.507735" />
    <sodipodi:guide
       id="guide79"
       orientation="1,0"
       position="198.4375,51.507745" />
  </sodipodi:namedview>
  <metadata
     id="metadata5">
    <rdf:RDF>
      <cc:Work
         rdf:about="">
        <dc:format>image/svg+xml</dc:format>
        <dc:type
           rdf:resource="http://purl.org/dc/dcmitype/StillImage" />
        <dc:title></dc:title>
      </cc:Work>
    </rdf:RDF>
  </metadata>
  <g
     id="layer1"
     inkscape:groupmode="layer"
     inkscape:label="レイヤー 1">
    <path
       inkscape:export-ydpi="96"
       inkscape:export-xdpi="96"
       transform="scale(0.26458333)"
       d="M 0,0 V 10 35 H 0.01757813 C 0.03352355,49.014 0.29090886,166.45455 5,190 c 0,0 86.435656,6.74035 120,0 -4.72152,-60.00414 -1.29289,-135.518319 -0.27148,-155 h 0.40039 c 0.38964,13.822357 3.33085,122.53138 -0.12891,155 41.57234,0 60.85001,10.47415 124.57422,0.0664 C 299.64979,196.26687 373,190 373,190 c 1.8552,-51.0181 1.98051,-141.650705 1.99023,-155 h 0.18555 c 0.72217,21.262201 3.29548,106.69432 -0.17578,155 0,0 88.95228,5.37069 125,0 V 61.630859 C 500.13342,103.48664 500.95094,174.0733 505,190 H 625 C 621.72347,159.87345 624.51764,48.874087 624.88086,35 h 0.0293 c -0.40055,23.366187 -1.93442,135.25322 5.08984,155 30.43473,-3.25232 120,0 120,0 -5.43681,-32.34697 -1.27852,-132.145414 -0.23438,-155 H 750 V 30 10 0 H 740 Z M 10,10 H 115 V 30 H 10 Z m 125,0 H 240 V 30 H 135 Z m 125,0 H 365 V 30 H 260 Z m 125,0 H 490 V 30 H 385 Z m 125,0 H 615 V 30 H 510 Z m 125,0 H 740 V 30 H 635 Z M 249.32422,47.181641 c 0.59051,32.487416 1.75098,108.501049 0.16211,136.615239 -3.01422,-40.41151 -1.2586,-105.787148 -0.16211,-136.615239 z"
       style="fill:#ffffff;stroke-width:25.451;stroke-linecap:round;stroke-linejoin:round"
       id="rect14" />
  </g>
</svg>
